<svg width="24" height="25" viewBox="0 0 24 25" fill="none" xmlns="http://www.w3.org/2000/svg">
<g clip-path="url(#clip0_152_524)">
<path d="M7 23.75C8.10457 23.75 9 22.8546 9 21.75C9 20.6454 8.10457 19.75 7 19.75C5.89543 19.75 5 20.6454 5 21.75C5 22.8546 5.89543 23.75 7 23.75Z" stroke="#FA0369" stroke-width="2" stroke-miterlimit="10" stroke-linecap="round" stroke-linejoin="round"/>
<path d="M19 23.75C20.1046 23.75 21 22.8546 21 21.75C21 20.6454 20.1046 19.75 19 19.75C17.8954 19.75 17 20.6454 17 21.75C17 22.8546 17.8954 23.75 19 23.75Z" stroke="#FA0369" stroke-width="2" stroke-miterlimit="10" stroke-linecap="round" stroke-linejoin="round"/>
<path d="M21.238 10.56L20 16.75H6L4 1.75H1" stroke="#FA0369" stroke-width="2" stroke-miterlimit="10" stroke-linecap="round" stroke-linejoin="round"/>
<path d="M4.66699 6.75H13" stroke="#FA0369" stroke-width="2" stroke-miterlimit="10" stroke-linecap="round" stroke-linejoin="round"/>
<path d="M18 11.75C20.7614 11.75 23 9.51142 23 6.75C23 3.98858 20.7614 1.75 18 1.75C15.2386 1.75 13 3.98858 13 6.75C13 9.51142 15.2386 11.75 18 11.75Z" stroke="#FA0369" stroke-width="2" stroke-miterlimit="10" stroke-linecap="round" stroke-linejoin="round"/>
<path d="M18 4.75V8.75" stroke="#FA0369" stroke-width="2" stroke-miterlimit="10" stroke-linecap="round" stroke-linejoin="round"/>
<path d="M16 6.75H20" stroke="#FA0369" stroke-width="2" stroke-miterlimit="10" stroke-linecap="round" stroke-linejoin="round"/>
</g>
<defs>
<clipPath id="clip0_152_524">
<rect width="24" height="24" fill="white" transform="translate(0 0.75)"/>
</clipPath>
</defs>
</svg>
